<svg width="14" height="14" viewBox="0 0 14 14" fill="none" xmlns="http://www.w3.org/2000/svg">
<path fill-rule="evenodd" clip-rule="evenodd" d="M13.7995 12.1884C13.643 12.6988 13.2952 13.0381 12.8548 13.3006C12.352 13.5993 11.8144 13.8139 11.2421 13.9386C10.8393 14.0241 10.4365 14.0125 10.0308 13.9516C9.57588 13.8835 9.1441 13.737 8.71812 13.5761C8.23853 13.3919 7.75024 13.231 7.28514 13.0091C6.58242 12.68 5.92461 12.2769 5.30592 11.8086C4.10477 10.8965 3.04996 9.83951 2.14729 8.63023C1.48369 7.74286 0.954835 6.78008 0.594055 5.7274C0.449163 5.30111 0.286885 4.87917 0.153585 4.44998C0.0463652 4.10344 0.00869349 3.74385 0 3.41906C0.00144891 2.98697 0.0782414 2.60998 0.204297 2.24024C0.370922 1.7516 0.575219 1.28036 0.886736 0.86422C1.06495 0.627875 1.27215 0.42198 1.54454 0.300183C1.84447 0.166786 2.15598 0.0696386 2.48199 0.0304895C2.67614 0.00729008 2.87175 0.00729021 3.06735 4.03788e-05C3.14414 -0.00140958 3.20645 0.0362892 3.24991 0.0971878C3.37887 0.282783 3.51941 0.462579 3.63098 0.659774C3.96568 1.24991 4.28589 1.84875 4.61624 2.44323C4.68144 2.55923 4.76693 2.66653 4.83793 2.78107C4.90168 2.88257 4.96543 2.98407 5.01904 3.09282C5.12046 3.29581 5.10453 3.49301 4.96543 3.6786C4.78721 3.9164 4.56988 4.11504 4.33805 4.29629C4.06855 4.50653 3.79181 4.71098 3.55564 4.96182C3.49333 5.02562 3.43682 5.09522 3.38321 5.16772C3.29048 5.28951 3.26875 5.42581 3.32526 5.56646C3.38321 5.7071 3.43827 5.8521 3.51507 5.9826C3.75269 6.38279 3.98596 6.78443 4.24387 7.17302C4.9321 8.20684 5.79566 9.07247 6.83018 9.75831C7.25616 10.0425 7.70098 10.2962 8.1429 10.5543C8.25736 10.621 8.39211 10.6529 8.51817 10.6964C8.60365 10.724 8.68334 10.7008 8.76014 10.6558C8.90503 10.5761 9.01949 10.4601 9.12671 10.3368C9.43823 9.9845 9.74395 9.62781 10.0569 9.27837C10.1482 9.17832 10.2583 9.09277 10.3655 9.01013C10.5148 8.89558 10.6828 8.88688 10.8524 8.95938C10.9596 9.00723 11.0697 9.05942 11.1624 9.12757C11.4638 9.34942 11.7956 9.51471 12.1187 9.69596C12.6128 9.97435 13.1069 10.2542 13.5981 10.534C13.6908 10.5877 13.7719 10.6558 13.8603 10.7167C13.9588 10.7863 13.998 10.8806 13.9994 10.9995C14.0081 11.4098 13.9197 11.7999 13.7995 12.1884Z" fill="black"/>
</svg>
